<!DOCTYPE svg PUBLIC "-//W3C//DTD SVG 1.1//EN" "http://www.w3.org/Graphics/SVG/1.1/DTD/svg11.dtd">
<!-- Uploaded to: SVG Repo, www.svgrepo.com, Transformed by: SVG Repo Mixer Tools -->
<svg width="64px" height="64px" viewBox="0 0 48 48" id="b" xmlns="http://www.w3.org/2000/svg" fill="#000000" stroke="#000000" stroke-width="3.024">
<g id="SVGRepo_bgCarrier" stroke-width="0"/>
<g id="SVGRepo_tracerCarrier" stroke-linecap="round" stroke-linejoin="round"/>
<g id="SVGRepo_iconCarrier">
<defs>
<style>.c{fill:none;stroke:#ffffff;stroke-linecap:round;stroke-linejoin:round;}</style>
</defs>
<path class="c" d="m10.7031,13.4555h28.3281c1.7344,0,3.4688,1.7344,3.4688,3.4688v20.2344c0,1.7344-1.7344,3.4688-3.4688,3.4688H8.9688c-1.7344,0-3.4688-1.7344-3.4688-3.4688V13.4555c0-2.8906.5781-3.7578,2.8906-3.7578l24.8594-2.3125c2.0234-.1156,2.3125.5781,2.3125,1.4453v4.625"/>
<path class="c" d="m18.8304,34.0345c1.3342,1.0006,2.6683,1.3341,5.3366,1.3341h1.3342c2.3947,0,4.3359-1.9413,4.3359-4.3359s-1.9413-4.3359-4.3359-4.3359h-3.0019c-2.3947,0-4.3359-1.9413-4.3359-4.3359s1.9413-4.3359,4.3359-4.3359h1.3342c3.0017,0,4.3359.3336,5.3366,1.3342"/>
</g>
</svg>